<svg width="45" height="61" viewBox="0 0 45 61" fill="none" xmlns="http://www.w3.org/2000/svg">
<path d="M22.5 0C25.0574 0 27.5101 1.01475 29.3185 2.82102C31.1269 4.6273 32.1429 7.07713 32.1429 9.63158V28.8947C32.1429 31.4492 31.1269 33.899 29.3185 35.7053C27.5101 37.5116 25.0574 38.5263 22.5 38.5263C19.9426 38.5263 17.4899 37.5116 15.6815 35.7053C13.8731 33.899 12.8571 31.4492 12.8571 28.8947V9.63158C12.8571 7.07713 13.8731 4.6273 15.6815 2.82102C17.4899 1.01475 19.9426 0 22.5 0ZM45 28.8947C45 40.2279 36.6107 49.5705 25.7143 51.1437V61H19.2857V51.1437C8.38929 49.5705 0 40.2279 0 28.8947H6.42857C6.42857 33.1522 8.12181 37.2352 11.1358 40.2457C14.1498 43.2561 18.2376 44.9474 22.5 44.9474C26.7624 44.9474 30.8502 43.2561 33.8642 40.2457C36.8782 37.2352 38.5714 33.1522 38.5714 28.8947H45Z" fill="#DCEFF6"/>
</svg>
